<svg width="164" height="166" viewBox="0 0 164 166" fill="none" xmlns="http://www.w3.org/2000/svg">
<path d="M41.0974 40.8916C40.6371 35.9301 41.7767 30.9514 44.3474 26.6921C46.9182 22.4329 50.7835 19.1194 55.3714 17.2421C59.9592 15.3647 65.026 15.0232 69.8218 16.2681C74.6175 17.513 78.8876 20.2782 82 24.1544M82 142.614C78.8886 146.171 74.655 148.541 70.0109 149.327C65.3667 150.113 60.5953 149.266 56.4988 146.929C52.4023 144.591 49.2305 140.906 47.5168 136.493C45.803 132.08 45.6518 127.208 47.0885 122.696" stroke="#2A5A6A" stroke-width="5" stroke-miterlimit="10" stroke-linecap="round" stroke-linejoin="round"/>
<path d="M52.4595 118.658C50.8966 120.415 48.9552 121.789 46.7837 122.676M46.7837 122.676C44.6122 123.562 42.268 123.937 39.9303 123.773C37.5926 123.608 35.3231 122.908 33.2955 121.726C31.2678 120.544 29.5355 118.911 28.2309 116.953C26.9264 114.994 26.0841 112.761 25.7684 110.425C25.4528 108.089 25.6721 105.711 26.4097 103.473C27.1472 101.235 28.3835 99.1966 30.0239 97.5129C31.6644 95.8292 33.6658 94.5451 35.875 93.7587M46.7837 122.676C46.8853 136.577 54.0708 160.026 82 142.614M31.5751 95.3468C25.145 92.3336 20.0804 86.9919 17.3919 80.3876C14.7035 73.7834 14.5888 66.4021 17.0707 59.7165C19.5527 53.0309 24.4488 47.5326 30.7822 44.3185C34.0823 42.6438 37.6463 41.6535 41.2678 41.3671M51.2397 42.3767C47.9738 41.4353 44.5965 41.1038 41.2678 41.3671M102.5 15.6725C98.6495 15.2354 94.7517 15.7837 91.168 17.2664C87.5843 18.7492 84.4308 21.1185 82 24.1545M82 24.1545C75.3307 18.0804 58.9505 9.57673 46.7837 24.1545C44.4091 26.7641 39.9815 33.8601 41.2678 41.3671M82 24.1545V142.614M82 142.614C85.1113 146.171 89.345 148.541 93.9891 149.327C98.6333 150.113 103.405 149.266 107.501 146.929C111.598 144.591 114.769 140.906 116.483 136.493C118.197 132.08 118.348 127.208 116.911 122.696" stroke="#2A5A6A" stroke-width="5" stroke-miterlimit="10" stroke-linecap="round" stroke-linejoin="round"/>
<path d="M148.625 31.002H133.25V15.5332H117.875V31.002H102.5V46.4707H117.875V61.9395H133.25V46.4707H148.625V31.002Z" fill="#2FD1CD"/>
<path d="M111.54 118.658C113.103 120.415 115.045 121.789 117.216 122.675C119.388 123.562 121.732 123.937 124.07 123.773C126.407 123.608 128.677 122.908 130.705 121.726C132.732 120.544 134.465 118.911 135.769 116.953C137.074 114.994 137.916 112.761 138.232 110.425C138.547 108.089 138.328 105.711 137.59 103.473C136.853 101.235 135.617 99.1965 133.976 97.5129C132.336 95.8292 130.334 94.5451 128.125 93.7587M132.425 95.3468C138.478 92.4884 143.324 87.5581 146.097 81.4365C148.87 75.3149 149.39 68.4008 147.564 61.9291M82 141.861V24.8145M61.5 67.0957C63.9549 69.9265 67.814 72.252 71.75 72.252C75.6962 72.252 79.2991 70.7566 82.0205 68.2971M102.5 98.0332C100.127 100.905 96.1809 103.189 92.25 103.189C88.4581 103.195 84.7987 101.786 81.9795 99.2346M148.625 31.002H133.25V15.5332H117.875V31.002H102.5V46.4707H117.875V61.9395H133.25V46.4707H148.625V31.002Z" stroke="#2A5A6A" stroke-width="4" stroke-miterlimit="10" stroke-linecap="round" stroke-linejoin="round"/>
</svg>
