<svg width="164" height="165" viewBox="0 0 164 165" fill="none" xmlns="http://www.w3.org/2000/svg">
<path d="M42.6979 53.2496C42.3588 53.2496 42.016 53.182 41.6844 53.0394C40.3857 52.4789 39.7863 50.9711 40.3456 49.6711C42.5165 44.6375 46.08 40.3145 50.6507 37.1714C51.8218 36.3694 53.4134 36.6647 54.2142 37.8296C55.0162 38.9957 54.7209 40.5923 53.556 41.393C49.7798 43.9906 46.8395 47.554 45.0527 51.7006C44.6348 52.669 43.6901 53.2496 42.6979 53.2496ZM121.071 146.297C117.38 146.297 113.786 144.718 110.716 141.647C108.023 138.954 106.689 135.358 105.4 131.883C104.595 129.708 103.834 127.653 102.828 126.126C100.798 123.061 97.5527 121.301 93.9242 121.301C90.2956 121.301 87.0499 123.061 85.0155 126.131C84.0132 127.653 83.2525 129.707 82.4467 131.88C81.1579 135.357 79.8254 138.953 77.1315 141.647C72.5646 146.212 66.7702 147.462 61.2323 145.07C51.1136 140.705 39.6862 122.346 40.7785 84.9731C40.8198 83.5592 41.9409 82.4518 43.4149 82.4869C44.8288 82.5282 45.9423 83.7081 45.901 85.1232C44.9489 117.699 53.9351 136.341 63.2617 140.365C66.8753 141.92 70.4175 141.114 73.508 138.024C75.4086 136.122 76.5434 133.06 77.6408 130.1C78.5116 127.751 79.4112 125.324 80.74 123.307C83.6979 118.84 88.6265 116.176 93.9242 116.176C99.2218 116.176 104.149 118.84 107.105 123.3C108.436 125.324 109.337 127.752 110.208 130.101C111.304 133.061 112.437 136.123 114.339 138.024C116.564 140.247 120.182 142.437 124.822 140.297C134.969 135.607 144.473 112.967 141.363 74.3377C141.323 73.8334 141.433 73.3279 141.678 72.885C143.743 69.1814 144.789 65.2901 144.789 61.32C144.789 47.9957 133.948 37.1552 120.625 37.1552C110.633 37.1552 101.822 43.2123 98.1833 52.5865C97.8205 53.5199 96.9471 54.1567 95.9486 54.2168C94.5873 54.3006 93.2635 54.3006 91.8972 54.2168C90.8987 54.1567 90.0279 53.5211 89.665 52.589C86.2166 43.7378 77.9173 37.6982 68.5231 37.2027C67.1105 37.1289 66.0244 35.9227 66.0995 34.5088C66.1746 33.0949 67.407 32.0076 68.7934 32.0852C79.6277 32.6558 89.2571 39.2922 93.774 49.1544C93.8741 49.1556 93.9742 49.1569 94.0693 49.1544C98.8264 38.6967 109.071 32.0302 120.625 32.0302C136.776 32.0302 149.914 45.1692 149.914 61.32C149.914 65.9232 148.775 70.4164 146.533 74.6855C149.889 118.306 138.122 139.795 126.971 144.949C125.019 145.851 123.033 146.295 121.071 146.297Z" fill="#2A5A6A"/>
<path d="M84.9028 93.9506C83.803 93.9506 82.8258 93.2486 82.4742 92.2076C79.8266 84.3562 78.1137 82.6433 70.2623 79.9932C69.2212 79.6429 68.5193 78.6656 68.5193 77.5658C68.5193 76.466 69.2212 75.4888 70.2623 75.1385C78.1137 72.4884 79.8266 70.7755 82.4742 62.924C82.8258 61.883 83.803 61.1811 84.9028 61.1811C86.0014 61.1811 86.9798 61.8818 87.3302 62.924C89.9827 70.7755 91.6944 72.4884 99.5446 75.1385C100.588 75.4901 101.289 76.466 101.289 77.5658C101.289 78.6656 100.588 79.6416 99.5446 79.9932C91.6944 82.6433 89.9827 84.3562 87.3302 92.2076C86.9798 93.2499 86.0014 93.9506 84.9028 93.9506ZM77.8259 77.5658C81.1028 79.29 83.1799 81.367 84.9028 84.6452C86.6295 81.367 88.7065 79.29 91.9822 77.5658C88.7065 75.8416 86.6295 73.7646 84.9028 70.4864C83.1799 73.7646 81.1028 75.8416 77.8259 77.5658ZM40.4982 94.9866C39.3984 94.9866 38.4225 94.2846 38.0709 93.2436C33.3488 79.255 29.8153 75.7215 15.8279 71.0007C14.7869 70.6491 14.085 69.6731 14.085 68.5733C14.085 67.4735 14.7869 66.4975 15.8279 66.1459C29.8153 61.4251 33.35 57.8904 38.0709 43.903C38.4212 42.862 39.3984 42.16 40.4982 42.16C41.5981 42.16 42.574 42.8607 42.9256 43.903C47.6477 57.8904 51.1811 61.4251 65.1685 66.1459C66.2096 66.4975 66.9115 67.4735 66.9115 68.5733C66.9115 69.6731 66.2096 70.6491 65.1685 71.0007C51.1824 75.7215 47.649 79.255 42.9256 93.2436C42.574 94.2859 41.5981 94.9866 40.4982 94.9866ZM23.912 68.5733C32.5054 72.2682 36.8034 76.5661 40.4982 85.1607C44.1943 76.5674 48.4923 72.2682 57.0844 68.5733C48.4923 64.8784 44.1943 60.5805 40.4982 51.9871C36.8034 60.5805 32.5054 64.8784 23.912 68.5733Z" fill="#18BABA"/>
<path d="M61.4049 53.9002C60.3051 53.9002 59.3291 53.1995 58.9775 52.1573C56.3262 44.3058 54.6133 42.5929 46.7631 39.9428C45.7221 39.5912 45.0202 38.6153 45.0202 37.5155C45.0202 36.4156 45.7221 35.4397 46.7631 35.0881C54.6133 32.438 56.3262 30.7251 58.9775 22.8737C59.3291 21.8314 60.3051 21.1307 61.4049 21.1307C62.5047 21.1307 63.4819 21.8327 63.8323 22.8737C66.4824 30.7251 68.194 32.438 76.0454 35.0881C77.0865 35.4397 77.7884 36.4156 77.7884 37.5155C77.7884 38.6153 77.0865 39.5912 76.0454 39.9428C68.194 42.5929 66.4824 44.3058 63.8323 52.1573C63.4819 53.1983 62.5047 53.9002 61.4049 53.9002ZM54.3255 37.5155C57.6024 39.2397 59.6807 41.3167 61.4049 44.5949C63.1291 41.3167 65.2061 39.2397 68.4831 37.5155C65.2061 35.7913 63.1291 33.7143 61.4049 30.4361C59.6807 33.7143 57.6024 35.7913 54.3255 37.5155Z" fill="#18BABA"/>
</svg>
