<svg width="26" height="26" viewBox="0 0 26 26" fill="none" xmlns="http://www.w3.org/2000/svg">
<path d="M13 21.5645C8.3 21.5645 4.5 17.7645 4.5 13.0645C4.5 8.36445 8.3 4.56445 13 4.56445C17.7 4.56445 21.5 8.36445 21.5 13.0645C21.5 17.7645 17.7 21.5645 13 21.5645ZM13 5.56445C8.85 5.56445 5.5 8.91445 5.5 13.0645C5.5 17.2145 8.85 20.5645 13 20.5645C17.15 20.5645 20.5 17.2145 20.5 13.0645C20.5 8.91445 17.15 5.56445 13 5.56445Z" fill="#000E10"/>
<path d="M12 16.7644L7.65002 12.4144L8.35002 11.7144L12 15.3644L17.65 9.71436L18.35 10.4144L12 16.7644Z" fill="#000E10"/>
</svg>
