<svg width="32" height="33" viewBox="0 0 32 33" fill="none" xmlns="http://www.w3.org/2000/svg">
<path d="M8 22.5C7.71667 22.5 7.47934 22.404 7.288 22.212C7.09667 22.02 7.00067 21.7827 7 21.5C6.99934 21.2173 7.09534 20.98 7.288 20.788C7.48067 20.596 7.718 20.5 8 20.5H24C24.2833 20.5 24.521 20.596 24.713 20.788C24.905 20.98 25.0007 21.2173 25 21.5C24.9993 21.7827 24.9033 22.0203 24.712 22.213C24.5207 22.4057 24.2833 22.5013 24 22.5H8ZM8 17.5C7.71667 17.5 7.47934 17.404 7.288 17.212C7.09667 17.02 7.00067 16.7827 7 16.5C6.99934 16.2173 7.09534 15.98 7.288 15.788C7.48067 15.596 7.718 15.5 8 15.5H24C24.2833 15.5 24.521 15.596 24.713 15.788C24.905 15.98 25.0007 16.2173 25 16.5C24.9993 16.7827 24.9033 17.0203 24.712 17.213C24.5207 17.4057 24.2833 17.5013 24 17.5H8ZM8 12.5C7.71667 12.5 7.47934 12.404 7.288 12.212C7.09667 12.02 7.00067 11.7827 7 11.5C6.99934 11.2173 7.09534 10.98 7.288 10.788C7.48067 10.596 7.718 10.5 8 10.5H24C24.2833 10.5 24.521 10.596 24.713 10.788C24.905 10.98 25.0007 11.2173 25 11.5C24.9993 11.7827 24.9033 12.0203 24.712 12.213C24.5207 12.4057 24.2833 12.5013 24 12.5H8Z" fill="#000E10"/>
</svg>
