<svg width="44" height="44" viewBox="0 0 44 44" fill="none" xmlns="http://www.w3.org/2000/svg">
<path d="M24.1094 33.0332C24.1094 33.4504 23.9857 33.8582 23.7539 34.2051C23.5221 34.552 23.1927 34.8224 22.8072 34.982C22.4218 35.1417 21.9977 35.1834 21.5885 35.102C21.1793 35.0207 20.8035 34.8198 20.5085 34.5248C20.2135 34.2298 20.0126 33.8539 19.9312 33.4447C19.8498 33.0355 19.8916 32.6114 20.0512 32.226C20.2109 31.8405 20.4812 31.5111 20.8281 31.2793C21.175 31.0475 21.5828 30.9238 22 30.9238C22.5595 30.9238 23.096 31.1461 23.4916 31.5417C23.8872 31.9372 24.1094 32.4738 24.1094 33.0332ZM22 10.6738C17.5703 10.6738 13.9844 13.8906 13.9844 17.8457V18.6895C13.9844 19.0251 14.1177 19.347 14.3551 19.5844C14.5924 19.8217 14.9143 19.9551 15.25 19.9551C15.5857 19.9551 15.9076 19.8217 16.1449 19.5844C16.3823 19.347 16.5156 19.0251 16.5156 18.6895V17.8457C16.5156 15.287 18.9752 13.2051 22 13.2051C25.0249 13.2051 27.4844 15.287 27.4844 17.8457C27.4844 20.4044 25.0249 22.4863 22 22.4863C21.6643 22.4863 21.3424 22.6197 21.1051 22.857C20.8677 23.0944 20.7344 23.4163 20.7344 23.752V25.4395C20.7344 25.7751 20.8677 26.097 21.1051 26.3344C21.3424 26.5717 21.6643 26.7051 22 26.7051C22.3357 26.7051 22.6576 26.5717 22.8949 26.3344C23.1323 26.097 23.2656 25.7751 23.2656 25.4395V24.929C27.0857 24.3848 30.0156 21.4148 30.0156 17.8457C30.0156 13.8906 26.4297 10.6738 22 10.6738ZM43.5156 22.0645C43.5156 26.3198 42.2538 30.4797 39.8896 34.0179C37.5254 37.5561 34.1651 40.3138 30.2337 41.9423C26.3022 43.5708 21.9761 43.9968 17.8025 43.1667C13.6289 42.3365 9.79518 40.2873 6.78617 37.2783C3.77715 34.2693 1.72799 30.4356 0.897802 26.2619C0.0676163 22.0883 0.493697 17.7622 2.12216 13.8308C3.75063 9.89931 6.50834 6.53903 10.0466 4.17486C13.5848 1.8107 17.7446 0.548828 22 0.548828C27.7043 0.555527 33.1729 2.8245 37.2065 6.85801C41.24 10.8915 43.5089 16.3602 43.5156 22.0645ZM40.9844 22.0645C40.9844 18.3097 39.871 14.6393 37.7849 11.5173C35.6989 8.39534 32.734 5.96206 29.265 4.52518C25.7961 3.0883 21.979 2.71234 18.2963 3.44486C14.6137 4.17737 11.231 5.98546 8.57603 8.64047C5.92102 11.2955 4.11293 14.6782 3.38041 18.3608C2.6479 22.0434 3.02385 25.8605 4.46073 29.3295C5.89762 32.7984 8.33089 35.7634 11.4529 37.8494C14.5748 39.9354 18.2453 41.0488 22 41.0488C27.0333 41.0432 31.8588 39.0413 35.4178 35.4823C38.9769 31.9232 40.9788 27.0977 40.9844 22.0645Z" fill="#000E10"/>
</svg>
