<svg width="140" height="119" viewBox="0 0 140 119" fill="none" xmlns="http://www.w3.org/2000/svg">
<path d="M69.795 51.3388L59.545 75.9132C59.3528 76.3812 59.0263 76.7817 58.6068 77.0645C58.1873 77.3472 57.6934 77.4994 57.1875 77.5019C56.6902 77.5059 56.2026 77.365 55.7839 77.0966C55.3653 76.8281 55.0339 76.4436 54.83 75.9901L46.3738 57.0019L41.2488 63.7669C41.0101 64.0852 40.7006 64.3435 40.3447 64.5214C39.9889 64.6993 39.5966 64.7919 39.1988 64.7919H26.4375C25.7579 64.7919 25.1061 64.522 24.6255 64.0414C24.145 63.5608 23.875 62.9091 23.875 62.2295C23.875 61.5498 24.145 60.898 24.6255 60.4175C25.1061 59.9369 25.7579 59.667 26.4375 59.667H37.9688L44.8875 50.4419C45.156 50.0873 45.5122 49.8087 45.9211 49.6334C46.33 49.4582 46.7774 49.3924 47.2194 49.4426C47.6605 49.4915 48.0814 49.6543 48.4408 49.9148C48.8001 50.1753 49.0857 50.5248 49.2694 50.9288L57.1875 68.4563L67.7194 43.2157C67.9064 42.7596 68.2211 42.3671 68.6256 42.0853C69.0301 41.8035 69.5073 41.6443 70 41.6269C70.5165 41.6446 71.0156 41.818 71.4317 42.1244C71.8479 42.4308 72.1617 42.8559 72.3319 43.3438L85.6056 80.9101L95.8556 58.5138C96.0577 58.0642 96.3852 57.6825 96.7988 57.4143C97.2124 57.1462 97.6946 57.003 98.1875 57.0019H111C111.68 57.0019 112.331 57.2719 112.812 57.7525C113.293 58.233 113.563 58.8848 113.563 59.5644C113.563 60.2441 113.293 60.8958 112.812 61.3764C112.331 61.857 111.68 62.1269 111 62.1269H99.8275L87.7069 88.8026C87.5048 89.2522 87.1773 89.6339 86.7637 89.9021C86.3501 90.1702 85.8679 90.3134 85.375 90.3144C84.863 90.2917 84.3695 90.116 83.9584 89.8099C83.5473 89.5039 83.2374 89.0816 83.0688 88.5976L69.795 51.3388Z" fill="#2FD1CD"/>
<path fill-rule="evenodd" clip-rule="evenodd" d="M139.188 33.9394C139.188 33.6063 138.803 0.626953 105.875 0.626953C83.7606 0.626953 73.9975 14.4901 70 23.4588C66.0025 14.4901 56.2394 0.626953 34.125 0.626953C1.19688 0.626953 0.812505 33.6063 0.812505 33.7345C0.812505 33.7464 0.810833 33.7819 0.808087 33.8403C0.669436 36.7861 -2.20665 97.8936 69.18 118.297H69.3081C69.5238 118.408 69.7585 118.478 70 118.502C70.2204 118.541 70.4459 118.541 70.6663 118.502C142.42 97.8354 139.313 36.4171 139.191 34.0102C139.189 33.97 139.188 33.9462 139.188 33.9394ZM34.125 5.75195C6.245 5.75195 5.93751 32.7863 5.93751 33.9394C5.73251 36.5019 1.96563 93.4151 70 113.377C98.5975 104.921 118.073 89.1101 127.861 66.2526C132.282 56.1416 134.4 45.1744 134.063 34.1444C134.063 32.7863 133.653 5.75195 105.875 5.75195C98.1196 5.4286 90.5034 7.88348 84.3967 12.6749C78.2899 17.4664 74.0936 24.2798 72.5625 31.8895C72.4739 32.0683 72.3711 32.2396 72.255 32.4019L72.1013 32.7607C71.9882 32.8866 71.8684 33.0064 71.7425 33.1195L71.4094 33.4526C71.2774 33.5154 71.1402 33.5669 70.9994 33.6063C70.8413 33.7089 70.6685 33.7867 70.4869 33.8369C70.3256 33.8628 70.1613 33.8628 70 33.8369H69.4363C69.2424 33.7756 69.0538 33.6985 68.8725 33.6063L68.5138 33.4526C68.3964 33.348 68.2852 33.2368 68.1806 33.1195C68.0547 33.0064 67.935 32.8866 67.8219 32.7607C67.7814 32.645 67.7299 32.5335 67.6681 32.4276C67.5802 32.2356 67.5032 32.0389 67.4375 31.8382C65.8671 24.2525 61.6586 17.4691 55.5596 12.6931C49.4605 7.91712 41.8659 5.45776 34.125 5.75195Z" fill="#2A5A6A"/>
</svg>
