<svg width="168" height="168" viewBox="0 0 168 168" fill="none" xmlns="http://www.w3.org/2000/svg">
<path d="M92.0331 73.6741C98.3052 73.4514 107.086 76.4791 92.0331 90.3713C86.1575 92.289 76.2747 96.4158 69.9728 101.469C82.9776 101.741 111.825 100.569 123.177 93.7108C137.367 85.1381 156.268 68.3309 158.863 42.2831C161.458 16.2353 105.194 -0.571978 101.117 42.2831C99.8191 22.0237 88.3996 -13.152 53.1032 8.22054C43.8032 17.4132 30.7833 45.3966 53.1032 83.7895C65.3376 78.0501 79.443 73.3923 92.0331 73.6741Z" fill="#2FD1CD"/>
<path d="M3.79176 153.153C16.7684 167.045 37.3148 166.511 45.9659 164.507C52.4541 138.46 92.0331 141.131 97.2238 139.795C102.414 138.46 129.665 127.105 140.047 121.094C148.352 116.286 160.809 99.4992 166 91.7071L161.458 85.1381C163.629 81.9474 165.149 79.3598 166 77.6814C161.328 60.5833 139.83 81.2434 129.665 93.7108C117.208 101.725 80.7867 107.737 64.1333 109.74C64.4836 106.856 66.764 104.042 69.9728 101.469C76.2747 96.4158 86.1575 92.289 92.0331 90.3713C107.086 76.4791 98.3052 73.4514 92.0331 73.6741C79.443 73.3923 65.3376 78.0501 53.1032 83.7895C42.135 88.9349 32.6705 94.9496 27.1497 99.054C-0.36077 128.441 0.115041 147.365 3.79176 153.153Z" fill="white"/>
<path d="M97.2238 123.766C105.529 124.3 129.233 114.638 140.047 109.74C149.816 100.761 157.006 91.6812 161.458 85.1381M161.458 85.1381C163.629 81.9474 165.149 79.3598 166 77.6814C161.328 60.5833 139.83 81.2434 129.665 93.7108C117.208 101.725 80.7867 107.737 64.1333 109.74C64.4836 106.856 66.764 104.042 69.9728 101.469M161.458 85.1381L166 91.7071C160.809 99.4992 148.352 116.286 140.047 121.094C129.665 127.105 102.414 138.46 97.2238 139.795C92.0331 141.131 52.4541 138.46 45.9659 164.507C37.3148 166.511 16.7684 167.045 3.79176 153.153C0.115041 147.365 -0.36077 128.441 27.1497 99.054C32.6705 94.9496 42.135 88.9349 53.1032 83.7895M69.9728 101.469C76.2747 96.4158 86.1575 92.289 92.0331 90.3713C107.086 76.4792 98.3052 73.4514 92.0331 73.6741C79.443 73.3923 65.3376 78.0501 53.1032 83.7895M69.9728 101.469C82.9776 101.741 111.825 100.569 123.177 93.7108C137.367 85.1381 156.268 68.3309 158.863 42.2831C161.458 16.2353 105.194 -0.571978 101.117 42.2831C99.8191 22.0237 88.3996 -13.152 53.1032 8.22054C43.8032 17.4132 30.7833 45.3966 53.1032 83.7895" stroke="#2A5A6A" stroke-width="3"/>
</svg>
